Coordinates
version=1
nRows=6
nColumns=63
inDegrees=yes

Units are S.I. units (second, meters, Newtons, ...)
If the header above contains a line with 'inDegrees', this indicates whether rotational values are in degrees (yes) or radians (no).

endheader
time	pelvis_tilt	pelvis_list	pelvis_rotation	pelvis_tx	pelvis_ty	pelvis_tz	hip_flexion_r	hip_adduction_r	hip_rotation_r	knee_angle_r	knee_angle_r_beta	ankle_angle_r	subtalar_angle_r	mtp_angle_r	hip_flexion_l	hip_adduction_l	hip_rotation_l	knee_angle_l	knee_angle_l_beta	ankle_angle_l	subtalar_angle_l	mtp_angle_l	L5_S1_Flex_Ext	L5_S1_Lat_Bending	L5_S1_axial_rotation	L4_L5_Flex_Ext	L4_L5_Lat_Bending	L4_L5_axial_rotation	L3_L4_Flex_Ext	L3_L4_Lat_Bending	L3_L4_axial_rotation	L2_L3_Flex_Ext	L2_L3_Lat_Bending	L2_L3_axial_rotation	L1_L2_Flex_Ext	L1_L2_Lat_Bending	L1_L2_axial_rotation	L1_T12_Flex_Ext	L1_T12_Lat_Bending	L1_T12_axial_rotation	Abs_r3	Abs_r2	Abs_r1	Abs_t1	Abs_t2	neck_flexion	neck_bending	neck_rotation	arm_flex_r	arm_add_r	arm_rot_r	elbow_flex_r	pro_sup_r	wrist_flex_r	wrist_dev_r	arm_flex_l	arm_add_l	arm_rot_l	elbow_flex_l	pro_sup_l	wrist_flex_l	wrist_dev_l
1.057143	-2.366361	2.411753	89.771156	0.232837	0.827994	0.669367	1.282091	-1.971827	3.282146	11.633795	0.203048	23.278059	-3.423499	0.000000	-2.786682	0.884856	-4.745128	2.055341	0.035872	20.866150	2.534925	0.000000	-0.100670	-0.479697	0.783802	-0.186953	-0.637998	0.832790	-0.165390	-1.166336	0.832790	-0.115055	-1.166336	0.685827	-0.093482	-0.978199	0.636839	-0.057523	-0.743051	0.587852	-0.719073	-5.426434	4.359273	0.000000	0.000000	17.325229	3.673559	-9.800911	35.705211	-12.893429	0.669041	126.716112	85.424413	-6.439283	9.536492	41.495399	-3.243998	24.183000	127.936062	76.611472	-3.088869	6.785595
1.085714	-2.350826	2.528466	89.394078	0.233485	0.828757	0.671104	1.403367	-1.932812	3.453419	11.709195	0.204364	23.154235	-3.070612	0.000000	-2.721242	0.852600	-5.804436	2.234625	0.039002	20.853163	3.262670	0.000000	-0.109552	-0.488608	0.824661	-0.203449	-0.649848	0.876202	-0.179983	-1.188001	0.876202	-0.125207	-1.188001	0.721578	-0.101730	-0.996369	0.670037	-0.062598	-0.756854	0.618495	-0.782520	-5.527229	4.586514	0.000000	0.000000	16.623068	3.754901	-9.850961	37.965516	-12.957985	0.885351	127.975329	86.228470	-5.668000	10.133520	43.625514	-1.808872	23.639028	128.420926	81.891468	-2.345938	6.374436
1.114286	-2.351855	2.636574	88.937372	0.234239	0.829390	0.672587	1.519739	-1.910031	3.716528	11.793677	0.205838	23.040189	-2.798934	0.000000	-2.665711	0.843971	-6.919691	2.430191	0.042415	20.847489	3.935928	0.000000	-0.118351	-0.497204	0.889997	-0.219790	-0.661281	0.945622	-0.194439	-1.208901	0.945622	-0.135263	-1.208901	0.778747	-0.109901	-1.013898	0.723122	-0.067626	-0.770169	0.667498	-0.845370	-5.624468	4.949896	0.000000	0.000000	15.985682	3.782168	-9.893115	39.886380	-13.104000	1.222099	129.112722	86.876843	-4.796993	10.889097	45.387134	-0.557745	23.233612	128.697254	86.383261	-1.867705	6.332239
1.142857	-2.370095	2.736259	88.407135	0.235074	0.829870	0.673772	1.625488	-1.906436	4.063891	11.886965	0.207467	22.934909	-2.614863	0.000000	-2.624842	0.861624	-8.045144	2.636348	0.046013	20.862189	4.509232	0.000000	-0.126645	-0.505704	0.982534	-0.235193	-0.672587	1.043943	-0.208066	-1.229569	1.043943	-0.144743	-1.229569	0.859718	-0.117603	-1.031232	0.798309	-0.072365	-0.783336	0.736901	-0.904616	-5.720627	5.464562	0.000000	0.000000	15.411724	3.757823	-9.972029	41.535482	-13.376866	1.605817	130.151332	87.274762	-3.934407	11.829018	46.807327	0.520625	22.957777	128.853119	89.723346	-1.794412	6.669838
1.171429	-2.399926	2.830478	87.809089	0.235965	0.830183	0.674650	1.714832	-1.919344	4.473846	11.991814	0.209297	22.837312	-2.498015	0.000000	-2.604645	0.899446	-9.147483	2.846196	0.049675	20.909919	4.963774	0.000000	-0.135776	-0.513854	1.103188	-0.252149	-0.683426	1.172138	-0.223066	-1.249385	1.172138	-0.155178	-1.249385	0.965290	-0.126081	-1.047852	0.896340	-0.077582	-0.795960	0.827391	-0.969832	-5.812822	6.135602	0.000000	0.000000	14.926102	3.693416	-10.119119	42.976955	-13.773665	1.919503	131.129171	87.429349	-2.921073	13.065167	47.961236	1.453814	22.831887	128.976630	91.700710	-2.249603	7.373830
1.200000	-2.428776	2.927450	87.160020	0.236839	0.830333	0.675251	1.782620	-1.934318	4.959173	12.117553	0.211491	22.712732	-2.507287	0.000000	-2.612912	0.948690	-10.105878	3.049788	0.053229	20.981647	5.185720	0.000000	-0.147574	-0.519920	1.244630	-0.274059	-0.691494	1.322420	-0.242449	-1.264135	1.322420	-0.168662	-1.264135	1.089052	-0.137037	-1.060222	1.011262	-0.084324	-0.805357	0.933473	-1.054104	-5.881444	6.922261	0.000000	0.000000	14.541283	3.599613	-10.318787	44.234891	-14.326433	2.142113	132.016432	87.447101	-1.740944	14.333203	48.912445	2.284636	22.867514	129.115557	92.319132	-3.303627	8.426628
